<svg width="299" height="299" viewBox="0 0 299 299" fill="none" xmlns="http://www.w3.org/2000/svg">
<g clip-path="url(#clip0_368_654)">
<path d="M270.246 251.881L272.88 241.527C277.549 239.554 282.326 237.845 287.188 236.409L287.52 241.221L288.868 235.919C294.898 234.201 299 233.445 299 233.445C299 233.445 293.46 254.452 281.838 270.512L268.296 272.884L278.816 274.396C277.354 276.15 275.783 277.811 274.112 279.368C257.206 295.014 238.375 302.192 232.053 295.401C225.731 288.61 234.311 270.422 251.217 254.778C256.458 249.928 263.042 246.036 269.633 242.972L270.246 251.881Z" fill="#F2F2F2"/>
<path d="M245.203 240.634L242.089 230.413C245.063 226.318 248.266 222.394 251.683 218.658L254.462 222.606L252.868 217.373C257.14 212.796 260.259 210.035 260.259 210.035C260.259 210.035 266.407 230.873 264.785 250.611L254.422 259.621L264.214 255.493C263.871 257.749 263.387 259.98 262.763 262.175C256.402 284.281 244.004 300.13 235.072 297.575C226.139 295.02 224.054 275.028 230.415 252.922C232.387 246.069 236.005 239.344 240.059 233.325L245.203 240.634Z" fill="#F2F2F2"/>
<path d="M90.3594 70.8333H92.002V25.9679C92.002 22.5577 92.6757 19.181 93.9846 16.0304C95.2935 12.8798 97.212 10.0172 99.6306 7.60582C102.049 5.19448 104.92 3.2817 108.08 1.97669C111.24 0.671681 114.627 3.8147e-06 118.048 3.8147e-06H213.389C220.296 3.8147e-06 226.921 2.7359 231.806 7.60582C236.69 12.4757 239.434 19.0808 239.434 25.9679V272.107C239.434 275.517 238.761 278.894 237.452 282.045C236.143 285.195 234.224 288.058 231.806 290.469C229.387 292.881 226.516 294.793 223.356 296.098C220.196 297.403 216.809 298.075 213.389 298.075H118.048C111.14 298.075 104.515 295.339 99.6308 290.469C94.7464 285.599 92.0024 278.994 92.0024 272.107V102.769H90.3598L90.3594 70.8333Z" fill="#E6E6E6"/>
<path d="M116.997 6.75343H129.441C128.868 8.15245 128.65 9.67035 128.805 11.1734C128.959 12.6764 129.482 14.1185 130.328 15.3725C131.173 16.6265 132.315 17.6539 133.652 18.3643C134.99 19.0747 136.482 19.4463 137.998 19.4462H192.617C194.133 19.4461 195.625 19.0745 196.962 18.364C198.3 17.6536 199.441 16.6261 200.287 15.3721C201.132 14.1182 201.655 12.6762 201.809 11.1732C201.964 9.67022 201.746 8.15239 201.173 6.75343H212.797C217.956 6.75343 222.903 8.79657 226.551 12.4334C230.198 16.0702 232.248 21.0028 232.248 26.146V271.928C232.248 277.071 230.198 282.004 226.551 285.64C222.903 289.277 217.956 291.32 212.797 291.32H116.997C111.838 291.32 106.891 289.277 103.243 285.64C99.5953 282.004 97.5461 277.071 97.5461 271.928V26.1456C97.5462 21.0024 99.5955 16.07 103.243 12.4332C106.891 8.79651 111.838 6.75343 116.997 6.75343Z" fill="white"/>
<path d="M177.104 104.66C177.105 102.942 176.651 101.255 175.789 99.767C174.927 98.2793 173.688 97.0442 172.195 96.186C173.687 95.3269 175.379 94.8745 177.102 94.8743C178.825 94.8741 180.518 95.3261 182.01 96.185C183.503 97.0438 184.742 98.2791 185.603 99.7668C186.465 101.254 186.918 102.942 186.918 104.66C186.918 106.378 186.465 108.065 185.603 109.553C184.742 111.041 183.503 112.276 182.01 113.135C180.518 113.994 178.825 114.446 177.102 114.445C175.379 114.445 173.687 113.993 172.195 113.134C173.688 112.276 174.927 111.041 175.789 109.553C176.651 108.066 177.105 106.378 177.104 104.66Z" fill="#CCCCCC"/>
<path d="M164.766 104.66C164.766 102.942 164.313 101.255 163.451 99.767C162.589 98.2793 161.349 97.0442 159.856 96.186C161.348 95.3269 163.041 94.8745 164.764 94.8743C166.487 94.8741 168.18 95.3261 169.672 96.185C171.164 97.0438 172.403 98.2791 173.265 99.7668C174.126 101.254 174.58 102.942 174.58 104.66C174.58 106.378 174.126 108.065 173.265 109.553C172.403 111.041 171.164 112.276 169.672 113.135C168.18 113.994 166.487 114.446 164.764 114.445C163.041 114.445 161.348 113.993 159.856 113.134C161.349 112.276 162.589 111.041 163.45 109.553C164.312 108.066 164.766 106.378 164.766 104.66Z" fill="#CCCCCC"/>
<path d="M152.707 114.446C147.287 114.446 142.893 110.064 142.893 104.66C142.893 99.2556 147.287 94.8745 152.707 94.8745C158.128 94.8745 162.522 99.2556 162.522 104.66C162.522 110.064 158.128 114.446 152.707 114.446Z" fill="#48B463"/>
<path d="M136.304 135.224H193.507C194.052 135.223 194.574 135.008 194.959 134.624C195.344 134.24 195.561 133.719 195.561 133.176V76.1439C195.561 75.6009 195.344 75.0804 194.959 74.6965C194.574 74.3125 194.052 74.0966 193.507 74.0959H136.304C135.76 74.0966 135.238 74.3125 134.853 74.6965C134.468 75.0804 134.251 75.6009 134.25 76.1439V133.176C134.251 133.719 134.468 134.24 134.853 134.624C135.238 135.008 135.76 135.223 136.304 135.224ZM193.507 74.9156C193.834 74.9159 194.147 75.0455 194.378 75.2758C194.609 75.5062 194.739 75.8185 194.74 76.1443V133.177C194.739 133.502 194.609 133.815 194.378 134.045C194.147 134.275 193.834 134.405 193.507 134.405H136.304C135.978 134.405 135.664 134.275 135.433 134.045C135.202 133.815 135.072 133.502 135.072 133.177V76.1443C135.072 75.8185 135.202 75.5062 135.433 75.2758C135.664 75.0455 135.978 74.9159 136.304 74.9156H193.507Z" fill="#CCCCCC"/>
<path d="M123.532 178.942H211.264V179.761H123.532V178.942Z" fill="#CCCCCC"/>
<path d="M208.493 173.827C206.963 173.827 205.723 172.59 205.723 171.065C205.723 169.539 206.963 168.302 208.493 168.302C210.023 168.302 211.264 169.539 211.264 171.065C211.264 172.59 210.023 173.827 208.493 173.827Z" fill="#48B463"/>
<path d="M123.532 206.564H211.264V207.383H123.532V206.564Z" fill="#CCCCCC"/>
<path d="M208.493 201.45C206.963 201.45 205.723 200.213 205.723 198.687C205.723 197.162 206.963 195.925 208.493 195.925C210.023 195.925 211.264 197.162 211.264 198.687C211.264 200.213 210.023 201.45 208.493 201.45Z" fill="#48B463"/>
<path d="M125.137 238.019H152.863C153.342 238.018 153.801 237.828 154.14 237.491C154.478 237.153 154.669 236.695 154.669 236.218V226.529C154.669 226.052 154.478 225.594 154.14 225.256C153.801 224.919 153.342 224.729 152.863 224.728H125.137C124.658 224.729 124.199 224.919 123.861 225.256C123.522 225.594 123.331 226.052 123.331 226.529V236.218C123.331 236.695 123.522 237.153 123.861 237.491C124.199 237.828 124.658 238.018 125.137 238.019Z" fill="#48B463"/>
<path d="M199.456 173.827C197.925 173.827 196.685 172.59 196.685 171.065C196.685 169.539 197.925 168.302 199.456 168.302C200.986 168.302 202.226 169.539 202.226 171.065C202.226 172.59 200.986 173.827 199.456 173.827Z" fill="#48B463"/>
<path d="M190.418 173.827C188.888 173.827 187.647 172.59 187.647 171.065C187.647 169.539 188.888 168.302 190.418 168.302C191.948 168.302 193.189 169.539 193.189 171.065C193.189 172.59 191.948 173.827 190.418 173.827Z" fill="#48B463"/>
<path d="M199.456 201.45C197.925 201.45 196.685 200.213 196.685 198.687C196.685 197.162 197.925 195.925 199.456 195.925C200.986 195.925 202.226 197.162 202.226 198.687C202.226 200.213 200.986 201.45 199.456 201.45Z" fill="#48B463"/>
<path d="M190.418 201.45C188.888 201.45 187.647 200.213 187.647 198.687C187.647 197.162 188.888 195.925 190.418 195.925C191.948 195.925 193.189 197.162 193.189 198.687C193.189 200.213 191.948 201.45 190.418 201.45Z" fill="#48B463"/>
<path d="M1.1167 299H289.334C289.951 299 290.45 298.781 290.45 298.513C290.45 298.244 289.951 298.025 289.334 298.025H1.1167C0.500122 298.025 -6.10352e-05 298.243 -6.10352e-05 298.513C-6.10352e-05 298.782 0.500122 299 1.1167 299Z" fill="#3F3D56"/>
<path d="M72.3251 195.895C72.1282 195.985 71.9388 196.091 71.7588 196.211L53.754 188.549L53.1114 183.82L45.9172 183.776L46.3422 194.622L70.1065 200.888C70.1565 201.052 70.2165 201.214 70.2861 201.371C70.6297 202.102 71.1822 202.716 71.8744 203.134C72.5665 203.553 73.3673 203.759 74.1762 203.726C74.9852 203.692 75.7662 203.421 76.4212 202.947C77.0762 202.472 77.576 201.815 77.8578 201.059C78.1396 200.302 78.1909 199.479 78.0051 198.693C77.8194 197.908 77.4049 197.194 76.8138 196.642C76.2227 196.091 75.4813 195.726 74.6827 195.593C73.8841 195.46 73.0639 195.565 72.3251 195.895Z" fill="#FFB8B8"/>
<path d="M43.3008 294.175H48.2223L50.5634 275.249L43.3 275.249L43.3008 294.175Z" fill="#FFB8B8"/>
<path d="M51.7376 292.773H42.2464V298.731H57.7136C57.7136 297.151 57.084 295.635 55.9633 294.518C54.8426 293.401 53.3225 292.773 51.7376 292.773Z" fill="#2F2E41"/>
<path d="M24.1609 292.788L29.0587 293.27L33.2499 274.664L26.0215 273.954L24.1609 292.788Z" fill="#FFB8B8"/>
<path d="M32.6947 292.218L23.2492 291.29L22.6634 297.22L38.0561 298.731C38.133 297.953 38.0553 297.166 37.8275 296.418C37.5997 295.669 37.2262 294.972 36.7284 294.367C36.2305 293.763 35.6181 293.261 34.926 292.893C34.2339 292.524 33.4757 292.294 32.6947 292.218Z" fill="#2F2E41"/>
<path d="M41.931 163.747C36.4858 163.747 32.0716 159.346 32.0716 153.917C32.0716 148.488 36.4858 144.087 41.931 144.087C47.3761 144.087 51.7903 148.488 51.7903 153.917C51.7903 159.346 47.3761 163.747 41.931 163.747Z" fill="#FFB8B8"/>
<path d="M49.322 290.348C49.745 290.349 50.1547 290.201 50.479 289.93C50.8032 289.659 51.0211 289.283 51.0943 288.868C53.6416 274.77 61.9681 228.672 62.1672 227.395C62.1716 227.365 62.1737 227.336 62.1735 227.306V223.869C62.1738 223.744 62.1346 223.622 62.0614 223.52L60.9614 221.984C60.9091 221.91 60.8405 221.849 60.761 221.806C60.6814 221.762 60.5929 221.738 60.5023 221.734C54.2312 221.441 33.6935 220.581 32.7013 221.817C31.7048 223.059 32.0569 226.823 32.1376 227.565L32.1337 227.642L22.9068 286.473C22.8346 286.943 22.9506 287.421 23.2297 287.806C23.5087 288.191 23.9285 288.45 24.398 288.529L30.1611 289.475C30.5903 289.544 31.03 289.457 31.4002 289.23C31.7704 289.002 32.0465 288.65 32.1784 288.237C33.9609 282.559 39.9376 263.456 42.009 256.064C42.0219 256.018 42.0515 255.977 42.0922 255.95C42.1329 255.924 42.182 255.913 42.2302 255.92C42.2785 255.926 42.3225 255.951 42.3543 255.987C42.386 256.024 42.4031 256.071 42.4025 256.12C42.2991 263.166 42.049 281.143 41.9627 287.352L41.9533 288.021C41.9495 288.474 42.1161 288.912 42.4203 289.248C42.7245 289.584 43.1441 289.794 43.5962 289.837L49.1535 290.34C49.2099 290.345 49.2664 290.348 49.322 290.348Z" fill="#2F2E41"/>
<path d="M48.1882 167.612C49.9088 168.632 50.9384 170.506 51.5292 172.413C52.623 175.943 53.2814 179.593 53.4899 183.282L54.1143 194.329L61.8438 223.613C55.1445 229.265 51.2801 227.98 42.2621 223.358C33.2441 218.735 32.2136 224.899 32.2136 224.899L30.4102 199.982L27.8337 172.753C28.412 172.059 29.0666 171.431 29.7852 170.882C32.1667 169.036 34.9375 167.753 37.8887 167.129C40.8399 166.506 43.8946 166.558 46.8226 167.282L48.1882 167.612Z" fill="#48B463"/>
<path d="M50.6988 201.81C50.4909 201.888 50.2895 201.982 50.0964 202.092L32.2939 193.208L31.9985 188.395L24.6549 187.89L24.2613 198.861L48.0521 206.705C48.2463 207.536 48.6897 208.288 49.3231 208.862C49.9565 209.435 50.75 209.802 51.598 209.915C52.4461 210.028 53.3085 209.881 54.0705 209.493C54.8326 209.105 55.4582 208.496 55.8641 207.745C56.27 206.994 56.4371 206.138 56.343 205.29C56.249 204.442 55.8983 203.643 55.3376 202.998C54.7768 202.354 54.0327 201.895 53.2041 201.683C52.3754 201.471 51.5016 201.515 50.6988 201.81Z" fill="#FFB8B8"/>
<path d="M27.9626 172.878C23.5824 174.419 22.8109 191.118 22.8109 191.118C27.9639 188.292 34.1477 192.916 34.1477 192.916C34.1477 192.916 35.4359 188.549 36.9819 182.897C37.4487 181.308 37.5045 179.626 37.1441 178.009C36.7837 176.392 36.0189 174.893 34.9208 173.65C34.9208 173.65 32.3427 171.336 27.9626 172.878Z" fill="#48B463"/>
<path d="M33.0905 156.516C34.3188 155.536 35.9948 157.317 35.9948 157.317L36.9777 148.499C36.9777 148.499 43.1199 149.233 47.0508 148.254C50.9818 147.276 51.596 151.806 51.596 151.806C51.7986 149.976 51.8397 148.132 51.7187 146.295C51.4732 144.09 48.2792 141.886 42.6284 140.416C36.9777 138.946 34.0296 145.315 34.0296 145.315C30.0982 147.274 31.8621 157.496 33.0905 156.516Z" fill="#2F2E41"/>
</g>
<defs>
<clipPath id="clip0_368_654">
<rect width="299" height="299" fill="white" transform="matrix(-1 0 0 1 299 0)"/>
</clipPath>
</defs>
</svg>
